# xmcd
#
# Track frame offsets:
#	150
#	11525
#	20645
#	31650
#	44232
#	60890
#	70727
#	83055
#	95275
#	104637
#	113980
#	124515
#	134300
#	144195
#	156245
#	167762
#	178707
#	190367
#	198727
#	209660
#
# Disc length: 3004 seconds
#
# Revision: 2
# Processed by: cddbd v1.5.1PL0 Copyright (c) Steve Scherf et al.
# Submitted via: audiograbber 1.83.01
#
DISCID=1a0bba14
DTITLE=Country - The Country Collection Disk #2
DYEAR=1900
DGENRE=Country
TTITLE0=Sammi Smith - Help Me Make It Through The Night
TTITLE1=Bob Wills and The Texas Cowboys - San Antonio Rose
TTITLE2=George Jones - Say It's Not You
TTITLE3=Conway Twitty - I've Already Love You In My Mind
TTITLE4=Hoyt Axton - Nashville
TTITLE5=Johnny Cash - Rock Island Line
TTITLE6=Lynn Anderson - Stand By Your Man
TTITLE7=Faron Young - Sweet Dreams Of You
TTITLE8=George Jones - The Race Is On
TTITLE9=Roger Miller - Chug-A-Lug
TTITLE10=Johnny Paycheck - Jukebox Charlie
TTITLE11=Johnny Cash - Ballad Of A Teenage Queen
TTITLE12=Kitty Wells - I Can't Stop Loving You
TTITLE13=Micky Gilley - Breathless
TTITLE14=George Jones - White Lightining
TTITLE15=Faron Young - Wine Me Up
TTITLE16=Jimmy Dean - Cajun Queen
TTITLE17=Roger Miller - Dang Me
TTITLE18=Johnny Cash - I Love You Because
TTITLE19=Razzy Bailey - Midnight Hauler
EXTD=
EXTT0=
EXTT1=
EXTT2=
EXTT3=
EXTT4=
EXTT5=
EXTT6=
EXTT7=
EXTT8=
EXTT9=
EXTT10=
EXTT11=
EXTT12=
EXTT13=
EXTT14=
EXTT15=
EXTT16=
EXTT17=
EXTT18=
EXTT19=
PLAYORDER=
